# xmcd
#
# Track frame offsets: 
#        150
#        43364
#        88220
#        137401
#
# Disc length: 2463 seconds
#
# Revision: 2
# Processed by: cddbd v1.5.2PL0 Copyright (c) Steve Scherf et al.
# Submitted via: ExactAudioCopy v1.1
#
DISCID=33099d04
DTITLE=Art Blakey and The Jazz Messengers - Newport Jazz Festival 1959
DYEAR=1959
DGENRE=Jazz
TTITLE0=M and M (live at Freebody Park, Newport, RI 07-01-59) (mono)
TTITLE1=Close Your Eyes (live at Freebody Park, Newport, RI 07-01-59) 
TTITLE1=(mono)
TTITLE2=Moanin' (live at Freebody Park, Newport, RI 07-01-59) (mono)
TTITLE3=A Night In Tunisia (live at Freebody Park, Newport, RI 07-01-5
TTITLE3=9) (mono)
EXTD=YEAR: 1959
EXTT0=
EXTT1=
EXTT2=
EXTT3=
PLAYORDER=
